<?xml version="1.0" encoding="UTF-8"?>
<!DOCTYPE svg PUBLIC "-//W3C//DTD SVG 1.1//EN" "http://www.w3.org/Graphics/SVG/1.1/DTD/svg11.dtd">
<svg version="1.2" width="70.3mm" height="70.3mm" viewBox="14970 2570 7030 7030" preserveAspectRatio="xMidYMid" fill-rule="evenodd" stroke-width="28.222" stroke-linejoin="round" xmlns="http://www.w3.org/2000/svg" xmlns:ooo="http://xml.openoffice.org/svg/export" xmlns:xlink="http://www.w3.org/1999/xlink" xmlns:presentation="http://sun.com/xmlns/staroffice/presentation" xmlns:smil="http://www.w3.org/2001/SMIL20/" xmlns:anim="urn:oasis:names:tc:opendocument:xmlns:animation:1.0" xml:space="preserve">
 <defs class="EmbeddedBulletChars">
  <g id="bullet-char-template-57356" transform="scale(0.00048828125,-0.00048828125)">
   <path d="M 580,1141 L 1163,571 580,0 -4,571 580,1141 Z"/>
  </g>
  <g id="bullet-char-template-57354" transform="scale(0.00048828125,-0.00048828125)">
   <path d="M 8,1128 L 1137,1128 1137,0 8,0 8,1128 Z"/>
  </g>
  <g id="bullet-char-template-10146" transform="scale(0.00048828125,-0.00048828125)">
   <path d="M 174,0 L 602,739 174,1481 1456,739 174,0 Z M 1358,739 L 309,1346 659,739 1358,739 Z"/>
  </g>
  <g id="bullet-char-template-10132" transform="scale(0.00048828125,-0.00048828125)">
   <path d="M 2015,739 L 1276,0 717,0 1260,543 174,543 174,936 1260,936 717,1481 1274,1481 2015,739 Z"/>
  </g>
  <g id="bullet-char-template-10007" transform="scale(0.00048828125,-0.00048828125)">
   <path d="M 0,-2 C -7,14 -16,27 -25,37 L 356,567 C 262,823 215,952 215,954 215,979 228,992 255,992 264,992 276,990 289,987 310,991 331,999 354,1012 L 381,999 492,748 772,1049 836,1024 860,1049 C 881,1039 901,1025 922,1006 886,937 835,863 770,784 769,783 710,716 594,584 L 774,223 C 774,196 753,168 711,139 L 727,119 C 717,90 699,76 672,76 641,76 570,178 457,381 L 164,-76 C 142,-110 111,-127 72,-127 30,-127 9,-110 8,-76 1,-67 -2,-52 -2,-32 -2,-23 -1,-13 0,-2 Z"/>
  </g>
  <g id="bullet-char-template-10004" transform="scale(0.00048828125,-0.00048828125)">
   <path d="M 285,-33 C 182,-33 111,30 74,156 52,228 41,333 41,471 41,549 55,616 82,672 116,743 169,778 240,778 293,778 328,747 346,684 L 369,508 C 377,444 397,411 428,410 L 1163,1116 C 1174,1127 1196,1133 1229,1133 1271,1133 1292,1118 1292,1087 L 1292,965 C 1292,929 1282,901 1262,881 L 442,47 C 390,-6 338,-33 285,-33 Z"/>
  </g>
  <g id="bullet-char-template-9679" transform="scale(0.00048828125,-0.00048828125)">
   <path d="M 813,0 C 632,0 489,54 383,161 276,268 223,411 223,592 223,773 276,916 383,1023 489,1130 632,1184 813,1184 992,1184 1136,1130 1245,1023 1353,916 1407,772 1407,592 1407,412 1353,268 1245,161 1136,54 992,0 813,0 Z"/>
  </g>
  <g id="bullet-char-template-8226" transform="scale(0.00048828125,-0.00048828125)">
   <path d="M 346,457 C 273,457 209,483 155,535 101,586 74,649 74,723 74,796 101,859 155,911 209,963 273,989 346,989 419,989 480,963 531,910 582,859 608,796 608,723 608,648 583,586 532,535 482,483 420,457 346,457 Z"/>
  </g>
  <g id="bullet-char-template-8211" transform="scale(0.00048828125,-0.00048828125)">
   <path d="M -4,459 L 1135,459 1135,606 -4,606 -4,459 Z"/>
  </g>
  <g id="bullet-char-template-61548" transform="scale(0.00048828125,-0.00048828125)">
   <path d="M 173,740 C 173,903 231,1043 346,1159 462,1274 601,1332 765,1332 928,1332 1067,1274 1183,1159 1299,1043 1357,903 1357,740 1357,577 1299,437 1183,322 1067,206 928,148 765,148 601,148 462,206 346,322 231,437 173,577 173,740 Z"/>
  </g>
 </defs>
 <g class="Page">
  <g class="com.sun.star.drawing.CustomShape">
   <g id="id3">
    <rect class="BoundingBox" stroke="none" fill="none" x="14970" y="2570" width="7030" height="7030"/>
    <path fill="rgb(0,0,0)" stroke="none" d="M 18485,9599 L 14970,9599 14970,2570 21999,2570 21999,9599 18485,9599 Z"/>
   </g>
  </g>
  <g class="Group">
   <g class="com.sun.star.drawing.ClosedBezierShape">
    <g id="id4">
     <rect class="BoundingBox" stroke="none" fill="none" x="15433" y="7258" width="668" height="664"/>
     <path fill="rgb(255,255,255)" stroke="none" d="M 15433,7921 C 15433,7700 15433,7479 15433,7258 15494,7258 15555,7258 15616,7258 15669,7413 15722,7569 15775,7724 15830,7569 15885,7413 15939,7258 15993,7258 16046,7258 16100,7258 16100,7479 16100,7700 16100,7921 16057,7921 16015,7921 15973,7921 15973,7754 15973,7587 15973,7421 15919,7572 15865,7724 15811,7876 15774,7876 15737,7876 15700,7876 15647,7722 15594,7568 15541,7414 15541,7583 15541,7752 15541,7921 L 15433,7921 Z"/>
    </g>
   </g>
   <g class="com.sun.star.drawing.ClosedBezierShape">
    <g id="id5">
     <rect class="BoundingBox" stroke="none" fill="none" x="16194" y="7258" width="655" height="664"/>
     <path fill="rgb(255,255,255)" stroke="none" d="M 16194,7921 C 16280,7700 16366,7479 16452,7258 16498,7258 16544,7258 16590,7258 16676,7479 16762,7700 16848,7921 16801,7921 16753,7921 16706,7921 16683,7862 16660,7803 16637,7744 16546,7744 16455,7744 16363,7744 16340,7803 16317,7862 16294,7921 L 16194,7921 Z M 16397,7656 C 16466,7656 16535,7656 16603,7656 16569,7568 16535,7479 16500,7391 L 16397,7656 Z"/>
    </g>
   </g>
   <g class="com.sun.star.drawing.ClosedBezierShape">
    <g id="id6">
     <rect class="BoundingBox" stroke="none" fill="none" x="16944" y="7258" width="539" height="664"/>
     <path fill="rgb(255,255,255)" stroke="none" d="M 16944,7921 L 16944,7258 17192,7258 C 17327,7258 17394,7313 17394,7422 17394,7463 17383,7500 17360,7534 17337,7568 17305,7593 17265,7611 L 17482,7921 17314,7921 17150,7650 17074,7650 17074,7921 16944,7921 Z M 17074,7559 L 17106,7559 C 17206,7559 17256,7518 17256,7438 17256,7378 17211,7349 17122,7349 L 17074,7349 17074,7559 Z"/>
    </g>
   </g>
   <g class="com.sun.star.drawing.ClosedBezierShape">
    <g id="id7">
     <rect class="BoundingBox" stroke="none" fill="none" x="17579" y="7258" width="558" height="664"/>
     <path fill="rgb(255,255,255)" stroke="none" d="M 17579,7921 C 17579,7700 17579,7479 17579,7258 17623,7258 17667,7258 17712,7258 17712,7365 17712,7472 17712,7579 17796,7472 17880,7365 17965,7258 18003,7258 18041,7258 18080,7258 18003,7357 17926,7456 17850,7555 17945,7677 18040,7799 18135,7921 18078,7921 18020,7921 17963,7921 17879,7812 17795,7703 17712,7595 17712,7703 17712,7812 17712,7921 L 17579,7921 Z"/>
    </g>
   </g>
   <g class="com.sun.star.drawing.ClosedBezierShape">
    <g id="id8">
     <rect class="BoundingBox" stroke="none" fill="none" x="18225" y="7258" width="522" height="680"/>
     <path fill="rgb(255,255,255)" stroke="none" d="M 18225,7258 L 18363,7258 18363,7664 C 18363,7728 18374,7775 18395,7803 18416,7832 18450,7846 18497,7846 18542,7846 18575,7832 18595,7805 18615,7778 18625,7734 18625,7674 L 18625,7258 18745,7258 18745,7665 C 18745,7726 18739,7773 18728,7805 18716,7837 18695,7865 18664,7888 18622,7921 18566,7937 18495,7937 18418,7937 18357,7920 18311,7885 18279,7861 18257,7833 18244,7800 18231,7768 18225,7722 18225,7664 L 18225,7258 Z"/>
    </g>
   </g>
   <g class="com.sun.star.drawing.ClosedBezierShape">
    <g id="id9">
     <rect class="BoundingBox" stroke="none" fill="none" x="18870" y="7242" width="445" height="697"/>
     <path fill="rgb(255,255,255)" stroke="none" d="M 18871,7915 L 18871,7802 C 18943,7832 19004,7846 19054,7846 19090,7846 19118,7839 19138,7823 19159,7807 19169,7785 19169,7758 19169,7737 19163,7719 19150,7704 19137,7689 19113,7672 19077,7651 L 19033,7627 C 18973,7593 18931,7561 18907,7531 18882,7500 18870,7464 18870,7423 18870,7369 18890,7325 18930,7292 18970,7259 19023,7242 19089,7242 19142,7242 19202,7250 19268,7265 L 19268,7371 C 19200,7346 19147,7333 19107,7333 19077,7333 19052,7340 19034,7353 19016,7367 19007,7385 19007,7407 19007,7425 19013,7441 19026,7455 19039,7468 19063,7485 19098,7505 L 19146,7532 C 19210,7568 19254,7601 19278,7631 19302,7661 19314,7698 19314,7741 19314,7802 19291,7850 19246,7885 19200,7920 19137,7938 19057,7938 19004,7938 18942,7930 18871,7915 Z"/>
    </g>
   </g>
   <g class="com.sun.star.drawing.ClosedBezierShape">
    <g id="id10">
     <rect class="BoundingBox" stroke="none" fill="none" x="15433" y="8342" width="438" height="664"/>
     <path fill="rgb(255,255,255)" stroke="none" d="M 15433,9005 C 15433,8784 15433,8563 15433,8342 15479,8342 15525,8342 15571,8342 15571,8532 15571,8721 15571,8911 15670,8911 15770,8911 15870,8911 15870,8942 15870,8973 15870,9005 L 15433,9005 Z"/>
    </g>
   </g>
   <g class="com.sun.star.drawing.ClosedBezierShape">
    <g id="id11">
     <rect class="BoundingBox" stroke="none" fill="none" x="15966" y="8342" width="139" height="664"/>
     <path fill="rgb(255,255,255)" stroke="none" d="M 15966,9005 C 15966,8784 15966,8563 15966,8342 16012,8342 16058,8342 16104,8342 16104,8563 16104,8784 16104,9005 L 15966,9005 Z"/>
    </g>
   </g>
   <g class="com.sun.star.drawing.ClosedBezierShape">
    <g id="id12">
     <rect class="BoundingBox" stroke="none" fill="none" x="16271" y="8342" width="139" height="664"/>
     <path fill="rgb(255,255,255)" stroke="none" d="M 16271,9005 C 16271,8784 16271,8563 16271,8342 16317,8342 16363,8342 16409,8342 16409,8563 16409,8784 16409,9005 L 16271,9005 Z"/>
    </g>
   </g>
   <g class="com.sun.star.drawing.ClosedBezierShape">
    <g id="id13">
     <rect class="BoundingBox" stroke="none" fill="none" x="16576" y="8342" width="668" height="664"/>
     <path fill="rgb(255,255,255)" stroke="none" d="M 16576,9005 C 16576,8784 16576,8563 16576,8342 16637,8342 16698,8342 16759,8342 16812,8497 16865,8653 16918,8808 16973,8653 17028,8497 17082,8342 17136,8342 17189,8342 17243,8342 17243,8563 17243,8784 17243,9005 17200,9005 17158,9005 17116,9005 17116,8838 17116,8671 17116,8505 17062,8656 17008,8808 16954,8960 16917,8960 16880,8960 16843,8960 16790,8806 16737,8652 16684,8498 16684,8667 16684,8836 16684,9005 L 16576,9005 Z"/>
    </g>
   </g>
   <g class="com.sun.star.drawing.ClosedBezierShape">
    <g id="id14">
     <rect class="BoundingBox" stroke="none" fill="none" x="17337" y="8342" width="655" height="664"/>
     <path fill="rgb(255,255,255)" stroke="none" d="M 17337,9005 C 17423,8784 17509,8563 17595,8342 17641,8342 17687,8342 17733,8342 17819,8563 17905,8784 17991,9005 17944,9005 17896,9005 17849,9005 17826,8946 17803,8887 17780,8828 17689,8828 17598,8828 17506,8828 17483,8887 17460,8946 17437,9005 L 17337,9005 Z M 17540,8740 C 17609,8740 17678,8740 17746,8740 17712,8652 17678,8563 17643,8475 L 17540,8740 Z"/>
    </g>
   </g>
   <g class="com.sun.star.drawing.ClosedBezierShape">
    <g id="id15">
     <rect class="BoundingBox" stroke="none" fill="none" x="18014" y="8342" width="614" height="664"/>
     <path fill="rgb(255,255,255)" stroke="none" d="M 18251,9005 C 18251,8814 18251,8623 18251,8433 18172,8433 18093,8433 18014,8433 18014,8403 18014,8372 18014,8342 18218,8342 18423,8342 18627,8342 18627,8372 18627,8403 18627,8433 18548,8433 18469,8433 18390,8433 18390,8623 18390,8814 18390,9005 L 18251,9005 Z"/>
    </g>
   </g>
   <g class="com.sun.star.drawing.ClosedBezierShape">
    <g id="id16">
     <rect class="BoundingBox" stroke="none" fill="none" x="18649" y="8342" width="655" height="664"/>
     <path fill="rgb(255,255,255)" stroke="none" d="M 18649,9005 C 18735,8784 18821,8563 18907,8342 18953,8342 18999,8342 19045,8342 19131,8563 19217,8784 19303,9005 19256,9005 19208,9005 19161,9005 19138,8946 19115,8887 19092,8828 19001,8828 18910,8828 18818,8828 18795,8887 18772,8946 18749,9005 L 18649,9005 Z M 18852,8740 C 18921,8740 18990,8740 19058,8740 19024,8652 18990,8563 18955,8475 L 18852,8740 Z"/>
    </g>
   </g>
   <g class="com.sun.star.drawing.ClosedBezierShape">
    <g id="id17">
     <rect class="BoundingBox" stroke="none" fill="none" x="19400" y="8342" width="139" height="664"/>
     <path fill="rgb(255,255,255)" stroke="none" d="M 19400,9005 C 19400,8784 19400,8563 19400,8342 19446,8342 19492,8342 19538,8342 19538,8563 19538,8784 19538,9005 L 19400,9005 Z"/>
    </g>
   </g>
   <g class="com.sun.star.drawing.ClosedBezierShape">
    <g id="id18">
     <rect class="BoundingBox" stroke="none" fill="none" x="19704" y="8342" width="541" height="664"/>
     <path fill="rgb(255,255,255)" stroke="none" d="M 19704,9005 C 19704,8784 19704,8563 19704,8342 19744,8342 19785,8342 19825,8342 19928,8493 20030,8644 20133,8795 20133,8644 20133,8493 20133,8342 20169,8342 20206,8342 20243,8342 20243,8563 20243,8784 20243,9005 20202,9005 20161,9005 20120,9005 20018,8854 19916,8703 19815,8552 19815,8703 19815,8854 19815,9005 L 19704,9005 Z"/>
    </g>
   </g>
   <g class="com.sun.star.drawing.ClosedBezierShape">
    <g id="id19">
     <rect class="BoundingBox" stroke="none" fill="none" x="20411" y="8342" width="436" height="664"/>
     <path fill="rgb(255,255,255)" stroke="none" d="M 20411,9005 C 20411,8784 20411,8563 20411,8342 20549,8342 20687,8342 20825,8342 20825,8372 20825,8403 20825,8433 20733,8433 20641,8433 20549,8433 20549,8495 20549,8556 20549,8618 20624,8618 20700,8618 20775,8618 20775,8647 20775,8677 20775,8706 20700,8706 20624,8706 20549,8706 20549,8775 20549,8843 20549,8911 20648,8911 20747,8911 20846,8911 20846,8942 20846,8973 20846,9005 L 20411,9005 Z"/>
    </g>
   </g>
   <g class="com.sun.star.drawing.ClosedBezierShape">
    <g id="id20">
     <rect class="BoundingBox" stroke="none" fill="none" x="20962" y="8342" width="540" height="664"/>
     <path fill="rgb(255,255,255)" stroke="none" d="M 20962,9005 C 20962,8784 20962,8563 20962,8342 21002,8342 21043,8342 21083,8342 21186,8493 21288,8644 21391,8795 21391,8644 21391,8493 21391,8342 21427,8342 21464,8342 21501,8342 21501,8563 21501,8784 21501,9005 21460,9005 21419,9005 21378,9005 21276,8854 21174,8703 21073,8552 21073,8703 21073,8854 21073,9005 L 20962,9005 Z"/>
    </g>
   </g>
  </g>
 </g>
</svg>