<?xml version="1.0" encoding="UTF-8"?>
<!DOCTYPE svg PUBLIC "-//W3C//DTD SVG 1.1//EN" "http://www.w3.org/Graphics/SVG/1.1/DTD/svg11.dtd">
<svg version="1.2" width="164.7mm" height="10.2mm" viewBox="6255 3926 16470 1020" preserveAspectRatio="xMidYMid" fill-rule="evenodd" stroke-width="28.222" stroke-linejoin="round" xmlns="http://www.w3.org/2000/svg" xmlns:ooo="http://xml.openoffice.org/svg/export" xmlns:xlink="http://www.w3.org/1999/xlink" xmlns:presentation="http://sun.com/xmlns/staroffice/presentation" xmlns:smil="http://www.w3.org/2001/SMIL20/" xmlns:anim="urn:oasis:names:tc:opendocument:xmlns:animation:1.0" xml:space="preserve">
 <defs class="EmbeddedBulletChars">
  <g id="bullet-char-template-57356" transform="scale(0.00048828125,-0.00048828125)">
   <path d="M 580,1141 L 1163,571 580,0 -4,571 580,1141 Z"/>
  </g>
  <g id="bullet-char-template-57354" transform="scale(0.00048828125,-0.00048828125)">
   <path d="M 8,1128 L 1137,1128 1137,0 8,0 8,1128 Z"/>
  </g>
  <g id="bullet-char-template-10146" transform="scale(0.00048828125,-0.00048828125)">
   <path d="M 174,0 L 602,739 174,1481 1456,739 174,0 Z M 1358,739 L 309,1346 659,739 1358,739 Z"/>
  </g>
  <g id="bullet-char-template-10132" transform="scale(0.00048828125,-0.00048828125)">
   <path d="M 2015,739 L 1276,0 717,0 1260,543 174,543 174,936 1260,936 717,1481 1274,1481 2015,739 Z"/>
  </g>
  <g id="bullet-char-template-10007" transform="scale(0.00048828125,-0.00048828125)">
   <path d="M 0,-2 C -7,14 -16,27 -25,37 L 356,567 C 262,823 215,952 215,954 215,979 228,992 255,992 264,992 276,990 289,987 310,991 331,999 354,1012 L 381,999 492,748 772,1049 836,1024 860,1049 C 881,1039 901,1025 922,1006 886,937 835,863 770,784 769,783 710,716 594,584 L 774,223 C 774,196 753,168 711,139 L 727,119 C 717,90 699,76 672,76 641,76 570,178 457,381 L 164,-76 C 142,-110 111,-127 72,-127 30,-127 9,-110 8,-76 1,-67 -2,-52 -2,-32 -2,-23 -1,-13 0,-2 Z"/>
  </g>
  <g id="bullet-char-template-10004" transform="scale(0.00048828125,-0.00048828125)">
   <path d="M 285,-33 C 182,-33 111,30 74,156 52,228 41,333 41,471 41,549 55,616 82,672 116,743 169,778 240,778 293,778 328,747 346,684 L 369,508 C 377,444 397,411 428,410 L 1163,1116 C 1174,1127 1196,1133 1229,1133 1271,1133 1292,1118 1292,1087 L 1292,965 C 1292,929 1282,901 1262,881 L 442,47 C 390,-6 338,-33 285,-33 Z"/>
  </g>
  <g id="bullet-char-template-9679" transform="scale(0.00048828125,-0.00048828125)">
   <path d="M 813,0 C 632,0 489,54 383,161 276,268 223,411 223,592 223,773 276,916 383,1023 489,1130 632,1184 813,1184 992,1184 1136,1130 1245,1023 1353,916 1407,772 1407,592 1407,412 1353,268 1245,161 1136,54 992,0 813,0 Z"/>
  </g>
  <g id="bullet-char-template-8226" transform="scale(0.00048828125,-0.00048828125)">
   <path d="M 346,457 C 273,457 209,483 155,535 101,586 74,649 74,723 74,796 101,859 155,911 209,963 273,989 346,989 419,989 480,963 531,910 582,859 608,796 608,723 608,648 583,586 532,535 482,483 420,457 346,457 Z"/>
  </g>
  <g id="bullet-char-template-8211" transform="scale(0.00048828125,-0.00048828125)">
   <path d="M -4,459 L 1135,459 1135,606 -4,606 -4,459 Z"/>
  </g>
  <g id="bullet-char-template-61548" transform="scale(0.00048828125,-0.00048828125)">
   <path d="M 173,740 C 173,903 231,1043 346,1159 462,1274 601,1332 765,1332 928,1332 1067,1274 1183,1159 1299,1043 1357,903 1357,740 1357,577 1299,437 1183,322 1067,206 928,148 765,148 601,148 462,206 346,322 231,437 173,577 173,740 Z"/>
  </g>
 </defs>
 <g class="Page">
  <g class="Group">
   <g class="com.sun.star.drawing.ClosedBezierShape">
    <g id="id3">
     <rect class="BoundingBox" stroke="none" fill="none" x="6255" y="3950" width="907" height="971"/>
     <path fill="rgb(0,0,0)" stroke="none" d="M 6255,4920 C 6255,4597 6255,4274 6255,3951 6319,3951 6382,3951 6446,3951 6535,4201 6625,4451 6714,4701 6806,4451 6898,4201 6990,3951 7047,3951 7104,3951 7161,3951 7161,4274 7161,4597 7161,4920 7118,4920 7075,4920 7032,4920 7032,4657 7032,4394 7032,4132 6943,4373 6854,4614 6765,4855 6721,4855 6677,4855 6632,4855 6546,4613 6459,4372 6373,4130 6373,4393 6373,4657 6373,4920 L 6255,4920 Z"/>
    </g>
   </g>
   <g class="com.sun.star.drawing.ClosedBezierShape">
    <g id="id4">
     <rect class="BoundingBox" stroke="none" fill="none" x="7438" y="3950" width="901" height="971"/>
     <path fill="rgb(0,0,0)" stroke="none" d="M 8043,4549 C 7988,4410 7933,4271 7878,4132 7823,4271 7768,4410 7712,4549 L 8043,4549 Z M 8189,4920 C 8153,4831 8118,4741 8083,4652 7946,4652 7809,4652 7673,4652 7637,4741 7601,4831 7566,4920 7523,4920 7481,4920 7438,4920 7566,4597 7694,4274 7822,3951 7868,3951 7913,3951 7959,3951 8085,4274 8211,4597 8337,4920 L 8189,4920 Z"/>
    </g>
   </g>
   <g class="com.sun.star.drawing.ClosedBezierShape">
    <g id="id5">
     <rect class="BoundingBox" stroke="none" fill="none" x="8620" y="3950" width="711" height="971"/>
     <path fill="rgb(0,0,0)" stroke="none" d="M 8620,4920 L 8620,3951 8913,3951 C 9006,3951 9078,3971 9127,4012 9177,4054 9202,4113 9202,4191 9202,4320 9136,4412 9006,4466 L 9329,4920 9160,4920 8885,4510 8756,4510 8756,4920 8620,4920 Z M 8756,4407 L 8801,4407 C 8974,4407 9060,4339 9060,4204 9060,4104 8988,4054 8843,4054 L 8756,4054 8756,4407 Z"/>
    </g>
   </g>
   <g class="com.sun.star.drawing.ClosedBezierShape">
    <g id="id6">
     <rect class="BoundingBox" stroke="none" fill="none" x="9607" y="3950" width="728" height="971"/>
     <path fill="rgb(0,0,0)" stroke="none" d="M 9607,4920 C 9607,4597 9607,4274 9607,3951 9650,3951 9693,3951 9736,3951 9736,4110 9736,4269 9736,4428 9867,4269 9998,4110 10128,3951 10174,3951 10220,3951 10266,3951 10140,4105 10013,4259 9887,4413 10036,4582 10185,4751 10334,4920 10276,4920 10218,4920 10160,4920 10018,4756 9877,4593 9736,4429 9736,4593 9736,4756 9736,4920 L 9607,4920 Z"/>
    </g>
   </g>
   <g class="com.sun.star.drawing.ClosedBezierShape">
    <g id="id7">
     <rect class="BoundingBox" stroke="none" fill="none" x="10617" y="3950" width="697" height="996"/>
     <path fill="rgb(0,0,0)" stroke="none" d="M 10617,3951 L 10755,3951 10755,4562 C 10755,4660 10773,4731 10809,4775 10845,4819 10902,4841 10981,4841 11057,4841 11112,4821 11144,4779 11176,4737 11192,4667 11192,4567 L 11192,3951 11313,3951 11313,4565 C 11313,4697 11285,4794 11231,4854 11177,4914 11090,4944 10971,4944 10851,4944 10761,4913 10704,4851 10646,4788 10617,4692 10617,4561 L 10617,3951 Z"/>
    </g>
   </g>
   <g class="com.sun.star.drawing.ClosedBezierShape">
    <g id="id8">
     <rect class="BoundingBox" stroke="none" fill="none" x="11637" y="3926" width="592" height="1020"/>
     <path fill="rgb(0,0,0)" stroke="none" d="M 11887,4944 C 11822,4944 11739,4930 11637,4902 L 11637,4765 C 11747,4816 11836,4841 11907,4841 11961,4841 12004,4827 12037,4799 12070,4770 12087,4733 12087,4687 12087,4649 12076,4617 12054,4590 12033,4563 11993,4534 11935,4501 L 11868,4462 C 11785,4415 11727,4371 11693,4329 11660,4287 11643,4239 11643,4183 11643,4109 11670,4047 11724,3999 11778,3951 11847,3927 11931,3927 12005,3927 12084,3939 12167,3964 L 12167,4090 C 12065,4050 11989,4029 11939,4029 11891,4029 11852,4042 11821,4067 11790,4093 11774,4125 11774,4163 11774,4195 11786,4224 11808,4249 11831,4274 11873,4303 11933,4338 L 12002,4377 C 12086,4425 12145,4470 12178,4512 12211,4554 12227,4605 12227,4665 12227,4749 12196,4817 12134,4868 12072,4919 11990,4944 11887,4944 Z"/>
    </g>
   </g>
   <g class="com.sun.star.drawing.ClosedBezierShape">
    <g id="id9">
     <rect class="BoundingBox" stroke="none" fill="none" x="13126" y="3950" width="575" height="971"/>
     <path fill="rgb(0,0,0)" stroke="none" d="M 13126,4920 C 13126,4597 13126,4274 13126,3951 13172,3951 13218,3951 13264,3951 13264,4240 13264,4528 13264,4817 13409,4817 13554,4817 13700,4817 13700,4851 13700,4886 13700,4920 L 13126,4920 Z"/>
    </g>
   </g>
   <g class="com.sun.star.drawing.ClosedBezierShape">
    <g id="id10">
     <rect class="BoundingBox" stroke="none" fill="none" x="13982" y="3950" width="139" height="971"/>
     <path fill="rgb(0,0,0)" stroke="none" d="M 13982,4920 C 13982,4597 13982,4274 13982,3951 14028,3951 14074,3951 14120,3951 14120,4274 14120,4597 14120,4920 L 13982,4920 Z"/>
    </g>
   </g>
   <g class="com.sun.star.drawing.ClosedBezierShape">
    <g id="id11">
     <rect class="BoundingBox" stroke="none" fill="none" x="14508" y="3950" width="139" height="971"/>
     <path fill="rgb(0,0,0)" stroke="none" d="M 14508,4920 C 14508,4597 14508,4274 14508,3951 14554,3951 14600,3951 14646,3951 14646,4274 14646,4597 14646,4920 L 14508,4920 Z"/>
    </g>
   </g>
   <g class="com.sun.star.drawing.ClosedBezierShape">
    <g id="id12">
     <rect class="BoundingBox" stroke="none" fill="none" x="15035" y="3950" width="907" height="971"/>
     <path fill="rgb(0,0,0)" stroke="none" d="M 15035,4920 C 15035,4597 15035,4274 15035,3951 15099,3951 15162,3951 15226,3951 15315,4201 15405,4451 15494,4701 15586,4451 15678,4201 15770,3951 15827,3951 15884,3951 15941,3951 15941,4274 15941,4597 15941,4920 15898,4920 15855,4920 15812,4920 15812,4657 15812,4394 15812,4132 15723,4373 15634,4614 15545,4855 15501,4855 15457,4855 15412,4855 15326,4613 15239,4372 15153,4130 15153,4393 15153,4657 15153,4920 L 15035,4920 Z"/>
    </g>
   </g>
   <g class="com.sun.star.drawing.ClosedBezierShape">
    <g id="id13">
     <rect class="BoundingBox" stroke="none" fill="none" x="16218" y="3950" width="901" height="971"/>
     <path fill="rgb(0,0,0)" stroke="none" d="M 16823,4549 C 16768,4410 16713,4271 16658,4132 16603,4271 16548,4410 16492,4549 L 16823,4549 Z M 16969,4920 C 16933,4831 16898,4741 16863,4652 16726,4652 16589,4652 16453,4652 16417,4741 16381,4831 16346,4920 16303,4920 16261,4920 16218,4920 16346,4597 16474,4274 16602,3951 16648,3951 16693,3951 16739,3951 16865,4274 16991,4597 17117,4920 L 16969,4920 Z"/>
    </g>
   </g>
   <g class="com.sun.star.drawing.ClosedBezierShape">
    <g id="id14">
     <rect class="BoundingBox" stroke="none" fill="none" x="17286" y="3950" width="827" height="971"/>
     <path fill="rgb(0,0,0)" stroke="none" d="M 17631,4920 C 17631,4631 17631,4342 17631,4054 17516,4054 17401,4054 17287,4054 17287,4019 17287,3985 17287,3951 17562,3951 17837,3951 18112,3951 18112,3985 18112,4019 18112,4054 17997,4054 17883,4054 17768,4054 17768,4342 17768,4631 17768,4920 L 17631,4920 Z"/>
    </g>
   </g>
   <g class="com.sun.star.drawing.ClosedBezierShape">
    <g id="id15">
     <rect class="BoundingBox" stroke="none" fill="none" x="18274" y="3950" width="901" height="971"/>
     <path fill="rgb(0,0,0)" stroke="none" d="M 18879,4549 C 18824,4410 18769,4271 18714,4132 18659,4271 18604,4410 18548,4549 L 18879,4549 Z M 19025,4920 C 18989,4831 18954,4741 18919,4652 18782,4652 18645,4652 18509,4652 18473,4741 18437,4831 18402,4920 18359,4920 18317,4920 18274,4920 18402,4597 18530,4274 18658,3951 18704,3951 18749,3951 18795,3951 18921,4274 19047,4597 19173,4920 L 19025,4920 Z"/>
    </g>
   </g>
   <g class="com.sun.star.drawing.ClosedBezierShape">
    <g id="id16">
     <rect class="BoundingBox" stroke="none" fill="none" x="19455" y="3950" width="139" height="971"/>
     <path fill="rgb(0,0,0)" stroke="none" d="M 19455,4920 C 19455,4597 19455,4274 19455,3951 19501,3951 19547,3951 19593,3951 19593,4274 19593,4597 19593,4920 L 19455,4920 Z"/>
    </g>
   </g>
   <g class="com.sun.star.drawing.ClosedBezierShape">
    <g id="id17">
     <rect class="BoundingBox" stroke="none" fill="none" x="19982" y="3950" width="742" height="971"/>
     <path fill="rgb(0,0,0)" stroke="none" d="M 19982,4920 C 19982,4597 19982,4274 19982,3951 20027,3951 20072,3951 20117,3951 20280,4200 20442,4450 20605,4699 20605,4450 20605,4200 20605,3951 20644,3951 20683,3951 20723,3951 20723,4274 20723,4597 20723,4920 20678,4920 20633,4920 20588,4920 20426,4671 20263,4421 20100,4172 20100,4421 20100,4671 20100,4920 L 19982,4920 Z"/>
    </g>
   </g>
   <g class="com.sun.star.drawing.ClosedBezierShape">
    <g id="id18">
     <rect class="BoundingBox" stroke="none" fill="none" x="21114" y="3950" width="571" height="971"/>
     <path fill="rgb(0,0,0)" stroke="none" d="M 21114,4920 C 21114,4597 21114,4274 21114,3951 21295,3951 21475,3951 21656,3951 21656,3985 21656,4019 21656,4054 21521,4054 21386,4054 21252,4054 21252,4157 21252,4261 21252,4365 21364,4365 21477,4365 21590,4365 21590,4399 21590,4432 21590,4466 21477,4466 21364,4466 21252,4466 21252,4583 21252,4700 21252,4817 21396,4817 21540,4817 21684,4817 21684,4851 21684,4886 21684,4920 L 21114,4920 Z"/>
    </g>
   </g>
   <g class="com.sun.star.drawing.ClosedBezierShape">
    <g id="id19">
     <rect class="BoundingBox" stroke="none" fill="none" x="21983" y="3950" width="742" height="971"/>
     <path fill="rgb(0,0,0)" stroke="none" d="M 21983,4920 C 21983,4597 21983,4274 21983,3951 22028,3951 22073,3951 22118,3951 22281,4200 22443,4450 22606,4699 22606,4450 22606,4200 22606,3951 22645,3951 22684,3951 22724,3951 22724,4274 22724,4597 22724,4920 22679,4920 22634,4920 22589,4920 22427,4671 22264,4421 22101,4172 22101,4421 22101,4671 22101,4920 L 21983,4920 Z"/>
    </g>
   </g>
  </g>
 </g>
</svg>