<?xml version="1.0" encoding="UTF-8"?>
<!DOCTYPE svg PUBLIC "-//W3C//DTD SVG 1.1//EN" "http://www.w3.org/Graphics/SVG/1.1/DTD/svg11.dtd">
<svg version="1.2" width="70.84mm" height="70.84mm" viewBox="22943 6776 7084 7084" preserveAspectRatio="xMidYMid" fill-rule="evenodd" stroke-width="28.222" stroke-linejoin="round" xmlns="http://www.w3.org/2000/svg" xmlns:ooo="http://xml.openoffice.org/svg/export" xmlns:xlink="http://www.w3.org/1999/xlink" xmlns:presentation="http://sun.com/xmlns/staroffice/presentation" xmlns:smil="http://www.w3.org/2001/SMIL20/" xmlns:anim="urn:oasis:names:tc:opendocument:xmlns:animation:1.0" xml:space="preserve">
 <defs class="EmbeddedBulletChars">
  <g id="bullet-char-template-57356" transform="scale(0.00048828125,-0.00048828125)">
   <path d="M 580,1141 L 1163,571 580,0 -4,571 580,1141 Z"/>
  </g>
  <g id="bullet-char-template-57354" transform="scale(0.00048828125,-0.00048828125)">
   <path d="M 8,1128 L 1137,1128 1137,0 8,0 8,1128 Z"/>
  </g>
  <g id="bullet-char-template-10146" transform="scale(0.00048828125,-0.00048828125)">
   <path d="M 174,0 L 602,739 174,1481 1456,739 174,0 Z M 1358,739 L 309,1346 659,739 1358,739 Z"/>
  </g>
  <g id="bullet-char-template-10132" transform="scale(0.00048828125,-0.00048828125)">
   <path d="M 2015,739 L 1276,0 717,0 1260,543 174,543 174,936 1260,936 717,1481 1274,1481 2015,739 Z"/>
  </g>
  <g id="bullet-char-template-10007" transform="scale(0.00048828125,-0.00048828125)">
   <path d="M 0,-2 C -7,14 -16,27 -25,37 L 356,567 C 262,823 215,952 215,954 215,979 228,992 255,992 264,992 276,990 289,987 310,991 331,999 354,1012 L 381,999 492,748 772,1049 836,1024 860,1049 C 881,1039 901,1025 922,1006 886,937 835,863 770,784 769,783 710,716 594,584 L 774,223 C 774,196 753,168 711,139 L 727,119 C 717,90 699,76 672,76 641,76 570,178 457,381 L 164,-76 C 142,-110 111,-127 72,-127 30,-127 9,-110 8,-76 1,-67 -2,-52 -2,-32 -2,-23 -1,-13 0,-2 Z"/>
  </g>
  <g id="bullet-char-template-10004" transform="scale(0.00048828125,-0.00048828125)">
   <path d="M 285,-33 C 182,-33 111,30 74,156 52,228 41,333 41,471 41,549 55,616 82,672 116,743 169,778 240,778 293,778 328,747 346,684 L 369,508 C 377,444 397,411 428,410 L 1163,1116 C 1174,1127 1196,1133 1229,1133 1271,1133 1292,1118 1292,1087 L 1292,965 C 1292,929 1282,901 1262,881 L 442,47 C 390,-6 338,-33 285,-33 Z"/>
  </g>
  <g id="bullet-char-template-9679" transform="scale(0.00048828125,-0.00048828125)">
   <path d="M 813,0 C 632,0 489,54 383,161 276,268 223,411 223,592 223,773 276,916 383,1023 489,1130 632,1184 813,1184 992,1184 1136,1130 1245,1023 1353,916 1407,772 1407,592 1407,412 1353,268 1245,161 1136,54 992,0 813,0 Z"/>
  </g>
  <g id="bullet-char-template-8226" transform="scale(0.00048828125,-0.00048828125)">
   <path d="M 346,457 C 273,457 209,483 155,535 101,586 74,649 74,723 74,796 101,859 155,911 209,963 273,989 346,989 419,989 480,963 531,910 582,859 608,796 608,723 608,648 583,586 532,535 482,483 420,457 346,457 Z"/>
  </g>
  <g id="bullet-char-template-8211" transform="scale(0.00048828125,-0.00048828125)">
   <path d="M -4,459 L 1135,459 1135,606 -4,606 -4,459 Z"/>
  </g>
  <g id="bullet-char-template-61548" transform="scale(0.00048828125,-0.00048828125)">
   <path d="M 173,740 C 173,903 231,1043 346,1159 462,1274 601,1332 765,1332 928,1332 1067,1274 1183,1159 1299,1043 1357,903 1357,740 1357,577 1299,437 1183,322 1067,206 928,148 765,148 601,148 462,206 346,322 231,437 173,577 173,740 Z"/>
  </g>
 </defs>
 <g class="Page">
  <g class="com.sun.star.drawing.CustomShape">
   <g id="id3">
    <rect class="BoundingBox" stroke="none" fill="none" x="22943" y="6776" width="7084" height="7084"/>
    <path fill="rgb(255,255,255)" stroke="none" d="M 26485,13832 L 22970,13832 22970,6803 29999,6803 29999,13832 26485,13832 Z"/>
    <path fill="none" stroke="rgb(0,0,0)" stroke-width="53" stroke-linejoin="round" d="M 26485,13832 L 22970,13832 22970,6803 29999,6803 29999,13832 26485,13832 Z"/>
   </g>
  </g>
  <g class="Group">
   <g class="com.sun.star.drawing.ClosedBezierShape">
    <g id="id4">
     <rect class="BoundingBox" stroke="none" fill="none" x="23432" y="11481" width="669" height="664"/>
     <path fill="rgb(0,0,0)" stroke="none" d="M 23433,12144 C 23433,11923 23433,11702 23433,11481 23494,11481 23555,11481 23616,11481 23669,11637 23722,11792 23775,11947 23830,11792 23884,11637 23939,11481 23993,11481 24046,11481 24100,11481 24100,11702 24100,11923 24100,12144 24057,12144 24015,12144 23972,12144 23972,11977 23972,11811 23972,11644 23918,11796 23865,11948 23811,12100 23774,12100 23737,12100 23700,12100 23647,11945 23594,11791 23541,11637 23541,11806 23541,11975 23541,12144 L 23433,12144 Z"/>
    </g>
   </g>
   <g class="com.sun.star.drawing.ClosedBezierShape">
    <g id="id5">
     <rect class="BoundingBox" stroke="none" fill="none" x="24194" y="11481" width="656" height="664"/>
     <path fill="rgb(0,0,0)" stroke="none" d="M 24194,12144 C 24280,11923 24366,11702 24452,11481 24498,11481 24544,11481 24590,11481 24676,11702 24762,11923 24848,12144 24801,12144 24754,12144 24707,12144 24684,12085 24661,12026 24638,11967 24546,11967 24455,11967 24364,11967 24341,12026 24318,12085 24295,12144 L 24194,12144 Z M 24398,11879 C 24466,11879 24535,11879 24604,11879 24569,11791 24535,11703 24501,11615 L 24398,11879 Z"/>
    </g>
   </g>
   <g class="com.sun.star.drawing.ClosedBezierShape">
    <g id="id6">
     <rect class="BoundingBox" stroke="none" fill="none" x="24943" y="11481" width="541" height="664"/>
     <path fill="rgb(0,0,0)" stroke="none" d="M 24944,12144 L 24944,11481 25192,11481 C 25327,11481 25394,11536 25394,11646 25394,11687 25382,11724 25360,11757 25337,11791 25305,11817 25265,11835 L 25482,12144 25314,12144 25150,11873 25074,11873 25074,12144 24944,12144 Z M 25074,11782 L 25105,11782 C 25205,11782 25255,11742 25255,11661 25255,11602 25211,11572 25122,11572 L 25074,11572 25074,11782 Z"/>
    </g>
   </g>
   <g class="com.sun.star.drawing.ClosedBezierShape">
    <g id="id7">
     <rect class="BoundingBox" stroke="none" fill="none" x="25578" y="11481" width="558" height="664"/>
     <path fill="rgb(0,0,0)" stroke="none" d="M 25579,12144 C 25579,11923 25579,11702 25579,11481 25623,11481 25667,11481 25711,11481 25711,11588 25711,11696 25711,11803 25796,11696 25880,11588 25965,11481 26003,11481 26041,11481 26079,11481 26003,11580 25926,11680 25850,11779 25945,11900 26040,12022 26135,12144 26077,12144 26020,12144 25963,12144 25879,12035 25795,11927 25711,11818 25711,11927 25711,12035 25711,12144 L 25579,12144 Z"/>
    </g>
   </g>
   <g class="com.sun.star.drawing.ClosedBezierShape">
    <g id="id8">
     <rect class="BoundingBox" stroke="none" fill="none" x="26225" y="11481" width="522" height="681"/>
     <path fill="rgb(0,0,0)" stroke="none" d="M 26225,11481 L 26363,11481 26363,11887 C 26363,11952 26374,11998 26395,12026 26416,12055 26451,12069 26498,12069 26543,12069 26575,12056 26596,12028 26616,12001 26626,11958 26626,11897 L 26626,11481 26746,11481 26746,11888 C 26746,11950 26740,11996 26728,12028 26717,12060 26695,12088 26665,12112 26623,12144 26566,12161 26495,12161 26419,12161 26358,12143 26311,12109 26279,12085 26257,12056 26244,12024 26232,11991 26225,11945 26225,11887 L 26225,11481 Z"/>
    </g>
   </g>
   <g class="com.sun.star.drawing.ClosedBezierShape">
    <g id="id9">
     <rect class="BoundingBox" stroke="none" fill="none" x="26870" y="11464" width="446" height="698"/>
     <path fill="rgb(0,0,0)" stroke="none" d="M 26872,12138 L 26872,12024 C 26943,12054 27004,12069 27055,12069 27090,12069 27118,12061 27139,12045 27159,12030 27169,12008 27169,11981 27169,11960 27163,11941 27150,11927 27137,11912 27113,11894 27077,11874 L 27033,11849 C 26973,11816 26932,11784 26907,11753 26883,11723 26870,11687 26870,11646 26870,11591 26890,11548 26931,11514 26971,11481 27024,11465 27090,11465 27143,11465 27202,11472 27268,11488 L 27268,11594 C 27201,11568 27147,11556 27108,11556 27077,11556 27053,11562 27034,11576 27016,11590 27007,11607 27007,11630 27007,11648 27013,11664 27026,11677 27039,11691 27063,11708 27099,11728 L 27146,11754 C 27210,11790 27254,11823 27278,11853 27302,11884 27314,11920 27314,11964 27314,12025 27292,12073 27246,12108 27200,12143 27137,12161 27057,12161 27004,12161 26942,12153 26872,12138 Z"/>
    </g>
   </g>
   <g class="com.sun.star.drawing.ClosedBezierShape">
    <g id="id10">
     <rect class="BoundingBox" stroke="none" fill="none" x="23432" y="12565" width="439" height="664"/>
     <path fill="rgb(0,0,0)" stroke="none" d="M 23433,13228 C 23433,13007 23433,12786 23433,12565 23479,12565 23525,12565 23571,12565 23571,12755 23571,12944 23571,13134 23670,13134 23770,13134 23869,13134 23869,13165 23869,13197 23869,13228 L 23433,13228 Z"/>
    </g>
   </g>
   <g class="com.sun.star.drawing.ClosedBezierShape">
    <g id="id11">
     <rect class="BoundingBox" stroke="none" fill="none" x="23965" y="12565" width="140" height="664"/>
     <path fill="rgb(0,0,0)" stroke="none" d="M 23966,13228 C 23966,13007 23966,12786 23966,12565 24012,12565 24058,12565 24104,12565 24104,12786 24104,13007 24104,13228 L 23966,13228 Z"/>
    </g>
   </g>
   <g class="com.sun.star.drawing.ClosedBezierShape">
    <g id="id12">
     <rect class="BoundingBox" stroke="none" fill="none" x="24270" y="12565" width="140" height="664"/>
     <path fill="rgb(0,0,0)" stroke="none" d="M 24271,13228 C 24271,13007 24271,12786 24271,12565 24317,12565 24363,12565 24409,12565 24409,12786 24409,13007 24409,13228 L 24271,13228 Z"/>
    </g>
   </g>
   <g class="com.sun.star.drawing.ClosedBezierShape">
    <g id="id13">
     <rect class="BoundingBox" stroke="none" fill="none" x="24575" y="12565" width="669" height="664"/>
     <path fill="rgb(0,0,0)" stroke="none" d="M 24576,13228 C 24576,13007 24576,12786 24576,12565 24637,12565 24698,12565 24759,12565 24812,12721 24865,12876 24918,13031 24973,12876 25027,12721 25082,12565 25136,12565 25189,12565 25243,12565 25243,12786 25243,13007 25243,13228 25200,13228 25158,13228 25115,13228 25115,13061 25115,12895 25115,12728 25061,12880 25008,13032 24954,13184 24917,13184 24880,13184 24843,13184 24790,13029 24737,12875 24684,12721 24684,12890 24684,13059 24684,13228 L 24576,13228 Z"/>
    </g>
   </g>
   <g class="com.sun.star.drawing.ClosedBezierShape">
    <g id="id14">
     <rect class="BoundingBox" stroke="none" fill="none" x="25337" y="12565" width="656" height="664"/>
     <path fill="rgb(0,0,0)" stroke="none" d="M 25337,13228 C 25423,13007 25509,12786 25595,12565 25641,12565 25687,12565 25733,12565 25819,12786 25905,13007 25991,13228 25944,13228 25897,13228 25850,13228 25827,13169 25804,13110 25781,13051 25689,13051 25598,13051 25507,13051 25484,13110 25461,13169 25438,13228 L 25337,13228 Z M 25541,12963 C 25609,12963 25678,12963 25747,12963 25712,12875 25678,12787 25644,12699 L 25541,12963 Z"/>
    </g>
   </g>
   <g class="com.sun.star.drawing.ClosedBezierShape">
    <g id="id15">
     <rect class="BoundingBox" stroke="none" fill="none" x="26013" y="12565" width="615" height="664"/>
     <path fill="rgb(0,0,0)" stroke="none" d="M 26251,13228 C 26251,13037 26251,12847 26251,12656 26172,12656 26093,12656 26014,12656 26014,12626 26014,12596 26014,12565 26218,12565 26423,12565 26627,12565 26627,12596 26627,12626 26627,12656 26548,12656 26469,12656 26390,12656 26390,12847 26390,13037 26390,13228 L 26251,13228 Z"/>
    </g>
   </g>
   <g class="com.sun.star.drawing.ClosedBezierShape">
    <g id="id16">
     <rect class="BoundingBox" stroke="none" fill="none" x="26649" y="12565" width="656" height="664"/>
     <path fill="rgb(0,0,0)" stroke="none" d="M 26649,13228 C 26735,13007 26821,12786 26907,12565 26953,12565 26999,12565 27045,12565 27131,12786 27217,13007 27303,13228 27256,13228 27209,13228 27162,13228 27139,13169 27116,13110 27093,13051 27001,13051 26910,13051 26819,13051 26796,13110 26773,13169 26750,13228 L 26649,13228 Z M 26853,12963 C 26921,12963 26990,12963 27059,12963 27024,12875 26990,12787 26956,12699 L 26853,12963 Z"/>
    </g>
   </g>
   <g class="com.sun.star.drawing.ClosedBezierShape">
    <g id="id17">
     <rect class="BoundingBox" stroke="none" fill="none" x="27399" y="12565" width="140" height="664"/>
     <path fill="rgb(0,0,0)" stroke="none" d="M 27400,13228 C 27400,13007 27400,12786 27400,12565 27446,12565 27492,12565 27538,12565 27538,12786 27538,13007 27538,13228 L 27400,13228 Z"/>
    </g>
   </g>
   <g class="com.sun.star.drawing.ClosedBezierShape">
    <g id="id18">
     <rect class="BoundingBox" stroke="none" fill="none" x="27703" y="12565" width="541" height="664"/>
     <path fill="rgb(0,0,0)" stroke="none" d="M 27704,13228 C 27704,13007 27704,12786 27704,12565 27744,12565 27785,12565 27825,12565 27928,12716 28030,12867 28132,13018 28132,12867 28132,12716 28132,12565 28169,12565 28206,12565 28243,12565 28243,12786 28243,13007 28243,13228 28202,13228 28161,13228 28119,13228 28018,13077 27916,12926 27814,12775 27814,12926 27814,13077 27814,13228 L 27704,13228 Z"/>
    </g>
   </g>
   <g class="com.sun.star.drawing.ClosedBezierShape">
    <g id="id19">
     <rect class="BoundingBox" stroke="none" fill="none" x="28410" y="12565" width="438" height="664"/>
     <path fill="rgb(0,0,0)" stroke="none" d="M 28411,13228 C 28411,13007 28411,12786 28411,12565 28549,12565 28687,12565 28825,12565 28825,12596 28825,12626 28825,12656 28733,12656 28641,12656 28549,12656 28549,12718 28549,12779 28549,12841 28624,12841 28700,12841 28775,12841 28775,12871 28775,12900 28775,12930 28700,12930 28624,12930 28549,12930 28549,12998 28549,13066 28549,13134 28648,13134 28747,13134 28846,13134 28846,13165 28846,13197 28846,13228 L 28411,13228 Z"/>
    </g>
   </g>
   <g class="com.sun.star.drawing.ClosedBezierShape">
    <g id="id20">
     <rect class="BoundingBox" stroke="none" fill="none" x="28961" y="12565" width="541" height="664"/>
     <path fill="rgb(0,0,0)" stroke="none" d="M 28962,13228 C 28962,13007 28962,12786 28962,12565 29002,12565 29043,12565 29083,12565 29186,12716 29288,12867 29390,13018 29390,12867 29390,12716 29390,12565 29427,12565 29464,12565 29501,12565 29501,12786 29501,13007 29501,13228 29460,13228 29419,13228 29377,13228 29276,13077 29174,12926 29072,12775 29072,12926 29072,13077 29072,13228 L 28962,13228 Z"/>
    </g>
   </g>
  </g>
 </g>
</svg>