<?xml version="1.0" encoding="UTF-8"?>
<!DOCTYPE svg PUBLIC "-//W3C//DTD SVG 1.1//EN" "http://www.w3.org/Graphics/SVG/1.1/DTD/svg11.dtd">
<svg version="1.2" width="33.76mm" height="28.36mm" viewBox="2479 -1226 3376 2836" preserveAspectRatio="xMidYMid" fill-rule="evenodd" stroke-width="28.222" stroke-linejoin="round" xmlns="http://www.w3.org/2000/svg" xmlns:ooo="http://xml.openoffice.org/svg/export" xmlns:xlink="http://www.w3.org/1999/xlink" xmlns:presentation="http://sun.com/xmlns/staroffice/presentation" xmlns:smil="http://www.w3.org/2001/SMIL20/" xmlns:anim="urn:oasis:names:tc:opendocument:xmlns:animation:1.0" xml:space="preserve">
 <defs class="EmbeddedBulletChars">
  <g id="bullet-char-template-57356" transform="scale(0.00048828125,-0.00048828125)">
   <path d="M 580,1141 L 1163,571 580,0 -4,571 580,1141 Z"/>
  </g>
  <g id="bullet-char-template-57354" transform="scale(0.00048828125,-0.00048828125)">
   <path d="M 8,1128 L 1137,1128 1137,0 8,0 8,1128 Z"/>
  </g>
  <g id="bullet-char-template-10146" transform="scale(0.00048828125,-0.00048828125)">
   <path d="M 174,0 L 602,739 174,1481 1456,739 174,0 Z M 1358,739 L 309,1346 659,739 1358,739 Z"/>
  </g>
  <g id="bullet-char-template-10132" transform="scale(0.00048828125,-0.00048828125)">
   <path d="M 2015,739 L 1276,0 717,0 1260,543 174,543 174,936 1260,936 717,1481 1274,1481 2015,739 Z"/>
  </g>
  <g id="bullet-char-template-10007" transform="scale(0.00048828125,-0.00048828125)">
   <path d="M 0,-2 C -7,14 -16,27 -25,37 L 356,567 C 262,823 215,952 215,954 215,979 228,992 255,992 264,992 276,990 289,987 310,991 331,999 354,1012 L 381,999 492,748 772,1049 836,1024 860,1049 C 881,1039 901,1025 922,1006 886,937 835,863 770,784 769,783 710,716 594,584 L 774,223 C 774,196 753,168 711,139 L 727,119 C 717,90 699,76 672,76 641,76 570,178 457,381 L 164,-76 C 142,-110 111,-127 72,-127 30,-127 9,-110 8,-76 1,-67 -2,-52 -2,-32 -2,-23 -1,-13 0,-2 Z"/>
  </g>
  <g id="bullet-char-template-10004" transform="scale(0.00048828125,-0.00048828125)">
   <path d="M 285,-33 C 182,-33 111,30 74,156 52,228 41,333 41,471 41,549 55,616 82,672 116,743 169,778 240,778 293,778 328,747 346,684 L 369,508 C 377,444 397,411 428,410 L 1163,1116 C 1174,1127 1196,1133 1229,1133 1271,1133 1292,1118 1292,1087 L 1292,965 C 1292,929 1282,901 1262,881 L 442,47 C 390,-6 338,-33 285,-33 Z"/>
  </g>
  <g id="bullet-char-template-9679" transform="scale(0.00048828125,-0.00048828125)">
   <path d="M 813,0 C 632,0 489,54 383,161 276,268 223,411 223,592 223,773 276,916 383,1023 489,1130 632,1184 813,1184 992,1184 1136,1130 1245,1023 1353,916 1407,772 1407,592 1407,412 1353,268 1245,161 1136,54 992,0 813,0 Z"/>
  </g>
  <g id="bullet-char-template-8226" transform="scale(0.00048828125,-0.00048828125)">
   <path d="M 346,457 C 273,457 209,483 155,535 101,586 74,649 74,723 74,796 101,859 155,911 209,963 273,989 346,989 419,989 480,963 531,910 582,859 608,796 608,723 608,648 583,586 532,535 482,483 420,457 346,457 Z"/>
  </g>
  <g id="bullet-char-template-8211" transform="scale(0.00048828125,-0.00048828125)">
   <path d="M -4,459 L 1135,459 1135,606 -4,606 -4,459 Z"/>
  </g>
  <g id="bullet-char-template-61548" transform="scale(0.00048828125,-0.00048828125)">
   <path d="M 173,740 C 173,903 231,1043 346,1159 462,1274 601,1332 765,1332 928,1332 1067,1274 1183,1159 1299,1043 1357,903 1357,740 1357,577 1299,437 1183,322 1067,206 928,148 765,148 601,148 462,206 346,322 231,437 173,577 173,740 Z"/>
  </g>
 </defs>
 <g class="Page">
  <g class="Group">
   <g class="com.sun.star.drawing.ClosedBezierShape">
    <g id="id3">
     <rect class="BoundingBox" stroke="none" fill="none" x="2568" y="-1081" width="745" height="1143"/>
     <path fill="rgb(0,0,0)" stroke="none" d="M 2568,60 L 2568,-1062 2718,-1062 2718,-907 C 2779,-1023 2870,-1080 2993,-1080 3092,-1080 3170,-1044 3226,-972 3283,-900 3312,-801 3312,-676 3312,-539 3279,-429 3215,-345 3151,-262 3066,-220 2961,-220 2863,-220 2782,-257 2718,-332 L 2718,60 2568,60 Z M 2718,-435 C 2794,-367 2868,-332 2937,-332 3081,-332 3153,-442 3153,-660 3153,-853 3089,-950 2962,-950 2878,-950 2797,-905 2718,-814 L 2718,-435 Z"/>
    </g>
   </g>
   <g class="com.sun.star.drawing.ClosedBezierShape">
    <g id="id4">
     <rect class="BoundingBox" stroke="none" fill="none" x="3517" y="-1081" width="787" height="862"/>
     <path fill="rgb(0,0,0)" stroke="none" d="M 3904,-220 C 3787,-220 3693,-259 3622,-337 3552,-415 3517,-520 3517,-650 3517,-783 3552,-888 3623,-965 3693,-1042 3789,-1080 3910,-1080 4030,-1080 4126,-1042 4196,-965 4267,-888 4302,-783 4302,-652 4302,-518 4267,-412 4196,-335 4125,-258 4028,-220 3904,-220 Z M 3907,-332 C 4065,-332 4144,-439 4144,-652 4144,-863 4066,-968 3910,-968 3754,-968 3676,-862 3676,-650 3676,-438 3753,-332 3907,-332 Z"/>
    </g>
   </g>
   <g class="com.sun.star.drawing.ClosedBezierShape">
    <g id="id5">
     <rect class="BoundingBox" stroke="none" fill="none" x="4570" y="-1081" width="456" height="843"/>
     <path fill="rgb(0,0,0)" stroke="none" d="M 4570,-239 L 4570,-1062 4720,-1062 4720,-907 C 4779,-1023 4865,-1080 4977,-1080 4992,-1080 5008,-1079 5025,-1076 L 5025,-937 C 4999,-946 4976,-950 4957,-950 4862,-950 4783,-894 4720,-782 L 4720,-239 4570,-239 Z"/>
    </g>
   </g>
   <g class="com.sun.star.drawing.ClosedBezierShape">
    <g id="id6">
     <rect class="BoundingBox" stroke="none" fill="none" x="5144" y="-1226" width="469" height="1007"/>
     <path fill="rgb(0,0,0)" stroke="none" d="M 5488,-220 C 5413,-220 5353,-242 5311,-285 5269,-329 5247,-389 5247,-466 L 5247,-950 5144,-950 5144,-1062 5247,-1062 5247,-1211 5397,-1226 5397,-1062 5612,-1062 5612,-950 5397,-950 5397,-494 C 5397,-386 5443,-332 5536,-332 5556,-332 5580,-335 5608,-342 L 5608,-239 C 5562,-226 5522,-220 5488,-220 Z"/>
    </g>
   </g>
   <g class="com.sun.star.drawing.ClosedBezierShape">
    <g id="id7">
     <rect class="BoundingBox" stroke="none" fill="none" x="2479" y="374" width="558" height="1217"/>
     <path fill="rgb(0,0,0)" stroke="none" d="M 2746,879 L 2746,1590 2596,1590 2596,879 2480,879 2480,767 2596,767 2596,669 C 2596,472 2686,374 2865,374 2915,374 2971,383 3035,399 L 3035,518 C 2968,497 2914,487 2874,487 2825,487 2791,498 2773,522 2755,545 2746,589 2746,653 L 2746,767 2952,767 2952,879 2746,879 Z"/>
    </g>
   </g>
   <g class="com.sun.star.drawing.ClosedBezierShape">
    <g id="id8">
     <rect class="BoundingBox" stroke="none" fill="none" x="3111" y="748" width="787" height="862"/>
     <path fill="rgb(0,0,0)" stroke="none" d="M 3498,1609 C 3381,1609 3287,1570 3216,1492 3146,1414 3111,1309 3111,1179 3111,1046 3146,941 3217,864 3287,787 3383,749 3504,749 3624,749 3720,787 3790,864 3861,941 3896,1046 3896,1177 3896,1311 3861,1417 3790,1494 3719,1571 3622,1609 3498,1609 Z M 3501,1497 C 3659,1497 3738,1390 3738,1177 3738,966 3660,861 3504,861 3348,861 3270,967 3270,1179 3270,1391 3347,1497 3501,1497 Z"/>
    </g>
   </g>
   <g class="com.sun.star.drawing.ClosedBezierShape">
    <g id="id9">
     <rect class="BoundingBox" stroke="none" fill="none" x="4164" y="393" width="151" height="1198"/>
     <path fill="rgb(0,0,0)" stroke="none" d="M 4164,1590 C 4164,1191 4164,792 4164,393 4214,393 4264,393 4314,393 4314,792 4314,1191 4314,1590 L 4164,1590 Z"/>
    </g>
   </g>
   <g class="com.sun.star.drawing.ClosedBezierShape">
    <g id="id10">
     <rect class="BoundingBox" stroke="none" fill="none" x="4649" y="468" width="151" height="1123"/>
     <path fill="rgb(0,0,0)" stroke="none" d="M 4649,1590 C 4649,1316 4649,1041 4649,767 4699,767 4749,767 4799,767 4799,1041 4799,1316 4799,1590 L 4649,1590 Z M 4649,618 C 4649,568 4649,518 4649,468 4699,468 4749,468 4799,468 4799,518 4799,568 4799,618 L 4649,618 Z"/>
    </g>
   </g>
   <g class="com.sun.star.drawing.ClosedBezierShape">
    <g id="id11">
     <rect class="BoundingBox" stroke="none" fill="none" x="5068" y="748" width="787" height="862"/>
     <path fill="rgb(0,0,0)" stroke="none" d="M 5455,1609 C 5338,1609 5244,1570 5173,1492 5103,1414 5068,1309 5068,1179 5068,1046 5103,941 5174,864 5244,787 5340,749 5461,749 5581,749 5677,787 5747,864 5818,941 5853,1046 5853,1177 5853,1311 5818,1417 5747,1494 5676,1571 5579,1609 5455,1609 Z M 5458,1497 C 5616,1497 5695,1390 5695,1177 5695,966 5617,861 5461,861 5305,861 5227,967 5227,1179 5227,1391 5304,1497 5458,1497 Z"/>
    </g>
   </g>
  </g>
 </g>
</svg>