<?xml version="1.0" encoding="UTF-8"?>
<!DOCTYPE svg PUBLIC "-//W3C//DTD SVG 1.1//EN" "http://www.w3.org/Graphics/SVG/1.1/DTD/svg11.dtd">
<svg version="1.2" width="70.84mm" height="70.84mm" viewBox="6972 2543 7084 7084" preserveAspectRatio="xMidYMid" fill-rule="evenodd" stroke-width="28.222" stroke-linejoin="round" xmlns="http://www.w3.org/2000/svg" xmlns:ooo="http://xml.openoffice.org/svg/export" xmlns:xlink="http://www.w3.org/1999/xlink" xmlns:presentation="http://sun.com/xmlns/staroffice/presentation" xmlns:smil="http://www.w3.org/2001/SMIL20/" xmlns:anim="urn:oasis:names:tc:opendocument:xmlns:animation:1.0" xml:space="preserve">
 <defs class="EmbeddedBulletChars">
  <g id="bullet-char-template-57356" transform="scale(0.00048828125,-0.00048828125)">
   <path d="M 580,1141 L 1163,571 580,0 -4,571 580,1141 Z"/>
  </g>
  <g id="bullet-char-template-57354" transform="scale(0.00048828125,-0.00048828125)">
   <path d="M 8,1128 L 1137,1128 1137,0 8,0 8,1128 Z"/>
  </g>
  <g id="bullet-char-template-10146" transform="scale(0.00048828125,-0.00048828125)">
   <path d="M 174,0 L 602,739 174,1481 1456,739 174,0 Z M 1358,739 L 309,1346 659,739 1358,739 Z"/>
  </g>
  <g id="bullet-char-template-10132" transform="scale(0.00048828125,-0.00048828125)">
   <path d="M 2015,739 L 1276,0 717,0 1260,543 174,543 174,936 1260,936 717,1481 1274,1481 2015,739 Z"/>
  </g>
  <g id="bullet-char-template-10007" transform="scale(0.00048828125,-0.00048828125)">
   <path d="M 0,-2 C -7,14 -16,27 -25,37 L 356,567 C 262,823 215,952 215,954 215,979 228,992 255,992 264,992 276,990 289,987 310,991 331,999 354,1012 L 381,999 492,748 772,1049 836,1024 860,1049 C 881,1039 901,1025 922,1006 886,937 835,863 770,784 769,783 710,716 594,584 L 774,223 C 774,196 753,168 711,139 L 727,119 C 717,90 699,76 672,76 641,76 570,178 457,381 L 164,-76 C 142,-110 111,-127 72,-127 30,-127 9,-110 8,-76 1,-67 -2,-52 -2,-32 -2,-23 -1,-13 0,-2 Z"/>
  </g>
  <g id="bullet-char-template-10004" transform="scale(0.00048828125,-0.00048828125)">
   <path d="M 285,-33 C 182,-33 111,30 74,156 52,228 41,333 41,471 41,549 55,616 82,672 116,743 169,778 240,778 293,778 328,747 346,684 L 369,508 C 377,444 397,411 428,410 L 1163,1116 C 1174,1127 1196,1133 1229,1133 1271,1133 1292,1118 1292,1087 L 1292,965 C 1292,929 1282,901 1262,881 L 442,47 C 390,-6 338,-33 285,-33 Z"/>
  </g>
  <g id="bullet-char-template-9679" transform="scale(0.00048828125,-0.00048828125)">
   <path d="M 813,0 C 632,0 489,54 383,161 276,268 223,411 223,592 223,773 276,916 383,1023 489,1130 632,1184 813,1184 992,1184 1136,1130 1245,1023 1353,916 1407,772 1407,592 1407,412 1353,268 1245,161 1136,54 992,0 813,0 Z"/>
  </g>
  <g id="bullet-char-template-8226" transform="scale(0.00048828125,-0.00048828125)">
   <path d="M 346,457 C 273,457 209,483 155,535 101,586 74,649 74,723 74,796 101,859 155,911 209,963 273,989 346,989 419,989 480,963 531,910 582,859 608,796 608,723 608,648 583,586 532,535 482,483 420,457 346,457 Z"/>
  </g>
  <g id="bullet-char-template-8211" transform="scale(0.00048828125,-0.00048828125)">
   <path d="M -4,459 L 1135,459 1135,606 -4,606 -4,459 Z"/>
  </g>
  <g id="bullet-char-template-61548" transform="scale(0.00048828125,-0.00048828125)">
   <path d="M 173,740 C 173,903 231,1043 346,1159 462,1274 601,1332 765,1332 928,1332 1067,1274 1183,1159 1299,1043 1357,903 1357,740 1357,577 1299,437 1183,322 1067,206 928,148 765,148 601,148 462,206 346,322 231,437 173,577 173,740 Z"/>
  </g>
 </defs>
 <g class="Page">
  <g class="com.sun.star.drawing.CustomShape">
   <g id="id3">
    <rect class="BoundingBox" stroke="none" fill="none" x="6972" y="2543" width="7084" height="7084"/>
    <path fill="none" stroke="rgb(0,0,0)" stroke-width="53" stroke-linejoin="round" d="M 10514,9599 L 6999,9599 6999,2570 14028,2570 14028,9599 10514,9599 Z"/>
   </g>
  </g>
  <g class="Group">
   <g class="com.sun.star.drawing.ClosedBezierShape">
    <g id="id4">
     <rect class="BoundingBox" stroke="none" fill="none" x="7534" y="6369" width="745" height="1143"/>
     <path fill="rgb(0,0,0)" stroke="none" d="M 7534,7510 L 7534,6388 7684,6388 7684,6543 C 7745,6427 7836,6370 7959,6370 8058,6370 8136,6406 8192,6478 8249,6550 8278,6649 8278,6775 8278,6911 8245,7021 8181,7105 8117,7188 8032,7230 7927,7230 7829,7230 7748,7193 7684,7118 L 7684,7510 7534,7510 Z M 7684,7015 C 7760,7083 7834,7118 7903,7118 8047,7118 8119,7008 8119,6790 8119,6597 8055,6500 7928,6500 7844,6500 7763,6545 7684,6636 L 7684,7015 Z"/>
    </g>
   </g>
   <g class="com.sun.star.drawing.ClosedBezierShape">
    <g id="id5">
     <rect class="BoundingBox" stroke="none" fill="none" x="8483" y="6369" width="787" height="862"/>
     <path fill="rgb(0,0,0)" stroke="none" d="M 8870,7230 C 8753,7230 8659,7191 8588,7113 8518,7035 8483,6930 8483,6800 8483,6667 8518,6562 8589,6485 8659,6408 8755,6370 8876,6370 8996,6370 9092,6408 9162,6485 9233,6562 9268,6667 9268,6798 9268,6932 9233,7038 9162,7115 9091,7192 8994,7230 8870,7230 Z M 8873,7118 C 9031,7118 9110,7011 9110,6798 9110,6587 9032,6482 8876,6482 8720,6482 8642,6588 8642,6800 8642,7012 8719,7118 8873,7118 Z"/>
    </g>
   </g>
   <g class="com.sun.star.drawing.ClosedBezierShape">
    <g id="id6">
     <rect class="BoundingBox" stroke="none" fill="none" x="9536" y="6369" width="456" height="843"/>
     <path fill="rgb(0,0,0)" stroke="none" d="M 9536,7211 L 9536,6388 9686,6388 9686,6543 C 9745,6427 9831,6370 9943,6370 9958,6370 9974,6371 9991,6374 L 9991,6513 C 9965,6504 9942,6500 9923,6500 9828,6500 9749,6556 9686,6668 L 9686,7211 9536,7211 Z"/>
    </g>
   </g>
   <g class="com.sun.star.drawing.ClosedBezierShape">
    <g id="id7">
     <rect class="BoundingBox" stroke="none" fill="none" x="10110" y="6224" width="469" height="1007"/>
     <path fill="rgb(0,0,0)" stroke="none" d="M 10454,7230 C 10379,7230 10319,7208 10277,7165 10235,7121 10213,7061 10213,6984 L 10213,6500 10110,6500 10110,6388 10213,6388 10213,6239 10363,6224 10363,6388 10578,6388 10578,6500 10363,6500 10363,6956 C 10363,7064 10409,7118 10502,7118 10522,7118 10546,7115 10574,7108 L 10574,7211 C 10528,7224 10488,7230 10454,7230 Z"/>
    </g>
   </g>
   <g class="com.sun.star.drawing.ClosedBezierShape">
    <g id="id8">
     <rect class="BoundingBox" stroke="none" fill="none" x="7445" y="7824" width="558" height="1217"/>
     <path fill="rgb(0,0,0)" stroke="none" d="M 7712,8329 L 7712,9040 7562,9040 7562,8329 7446,8329 7446,8217 7562,8217 7562,8119 C 7562,7922 7652,7824 7831,7824 7881,7824 7937,7833 8001,7849 L 8001,7968 C 7934,7947 7880,7937 7840,7937 7791,7937 7757,7948 7739,7972 7721,7995 7712,8039 7712,8103 L 7712,8217 7918,8217 7918,8329 7712,8329 Z"/>
    </g>
   </g>
   <g class="com.sun.star.drawing.ClosedBezierShape">
    <g id="id9">
     <rect class="BoundingBox" stroke="none" fill="none" x="8077" y="8198" width="787" height="862"/>
     <path fill="rgb(0,0,0)" stroke="none" d="M 8464,9059 C 8347,9059 8253,9020 8182,8942 8112,8864 8077,8759 8077,8629 8077,8496 8112,8391 8183,8314 8253,8237 8349,8199 8470,8199 8590,8199 8686,8237 8756,8314 8827,8391 8862,8496 8862,8627 8862,8761 8827,8867 8756,8944 8685,9021 8588,9059 8464,9059 Z M 8467,8947 C 8625,8947 8704,8840 8704,8627 8704,8416 8626,8311 8470,8311 8314,8311 8236,8417 8236,8629 8236,8841 8313,8947 8467,8947 Z"/>
    </g>
   </g>
   <g class="com.sun.star.drawing.ClosedBezierShape">
    <g id="id10">
     <rect class="BoundingBox" stroke="none" fill="none" x="9130" y="7843" width="151" height="1198"/>
     <path fill="rgb(0,0,0)" stroke="none" d="M 9130,9040 C 9130,8641 9130,8242 9130,7843 9180,7843 9230,7843 9280,7843 9280,8242 9280,8641 9280,9040 L 9130,9040 Z"/>
    </g>
   </g>
   <g class="com.sun.star.drawing.ClosedBezierShape">
    <g id="id11">
     <rect class="BoundingBox" stroke="none" fill="none" x="9615" y="7918" width="151" height="1123"/>
     <path fill="rgb(0,0,0)" stroke="none" d="M 9615,9040 C 9615,8766 9615,8491 9615,8217 9665,8217 9715,8217 9765,8217 9765,8491 9765,8766 9765,9040 L 9615,9040 Z M 9615,8068 C 9615,8018 9615,7968 9615,7918 9665,7918 9715,7918 9765,7918 9765,7968 9765,8018 9765,8068 L 9615,8068 Z"/>
    </g>
   </g>
   <g class="com.sun.star.drawing.ClosedBezierShape">
    <g id="id12">
     <rect class="BoundingBox" stroke="none" fill="none" x="10034" y="8198" width="787" height="862"/>
     <path fill="rgb(0,0,0)" stroke="none" d="M 10421,9059 C 10304,9059 10210,9020 10139,8942 10069,8864 10034,8759 10034,8629 10034,8496 10069,8391 10140,8314 10210,8237 10306,8199 10427,8199 10547,8199 10643,8237 10713,8314 10784,8391 10819,8496 10819,8627 10819,8761 10784,8867 10713,8944 10642,9021 10545,9059 10421,9059 Z M 10424,8947 C 10582,8947 10661,8840 10661,8627 10661,8416 10583,8311 10427,8311 10271,8311 10193,8417 10193,8629 10193,8841 10270,8947 10424,8947 Z"/>
    </g>
   </g>
  </g>
 </g>
</svg>