<?xml version="1.0" encoding="UTF-8"?>
<!DOCTYPE svg PUBLIC "-//W3C//DTD SVG 1.1//EN" "http://www.w3.org/Graphics/SVG/1.1/DTD/svg11.dtd">
<svg version="1.2" width="145.07mm" height="18.6mm" viewBox="7162 -1153 14507 1860" preserveAspectRatio="xMidYMid" fill-rule="evenodd" stroke-width="28.222" stroke-linejoin="round" xmlns="http://www.w3.org/2000/svg" xmlns:ooo="http://xml.openoffice.org/svg/export" xmlns:xlink="http://www.w3.org/1999/xlink" xmlns:presentation="http://sun.com/xmlns/staroffice/presentation" xmlns:smil="http://www.w3.org/2001/SMIL20/" xmlns:anim="urn:oasis:names:tc:opendocument:xmlns:animation:1.0" xml:space="preserve">
 <defs class="EmbeddedBulletChars">
  <g id="bullet-char-template-57356" transform="scale(0.00048828125,-0.00048828125)">
   <path d="M 580,1141 L 1163,571 580,0 -4,571 580,1141 Z"/>
  </g>
  <g id="bullet-char-template-57354" transform="scale(0.00048828125,-0.00048828125)">
   <path d="M 8,1128 L 1137,1128 1137,0 8,0 8,1128 Z"/>
  </g>
  <g id="bullet-char-template-10146" transform="scale(0.00048828125,-0.00048828125)">
   <path d="M 174,0 L 602,739 174,1481 1456,739 174,0 Z M 1358,739 L 309,1346 659,739 1358,739 Z"/>
  </g>
  <g id="bullet-char-template-10132" transform="scale(0.00048828125,-0.00048828125)">
   <path d="M 2015,739 L 1276,0 717,0 1260,543 174,543 174,936 1260,936 717,1481 1274,1481 2015,739 Z"/>
  </g>
  <g id="bullet-char-template-10007" transform="scale(0.00048828125,-0.00048828125)">
   <path d="M 0,-2 C -7,14 -16,27 -25,37 L 356,567 C 262,823 215,952 215,954 215,979 228,992 255,992 264,992 276,990 289,987 310,991 331,999 354,1012 L 381,999 492,748 772,1049 836,1024 860,1049 C 881,1039 901,1025 922,1006 886,937 835,863 770,784 769,783 710,716 594,584 L 774,223 C 774,196 753,168 711,139 L 727,119 C 717,90 699,76 672,76 641,76 570,178 457,381 L 164,-76 C 142,-110 111,-127 72,-127 30,-127 9,-110 8,-76 1,-67 -2,-52 -2,-32 -2,-23 -1,-13 0,-2 Z"/>
  </g>
  <g id="bullet-char-template-10004" transform="scale(0.00048828125,-0.00048828125)">
   <path d="M 285,-33 C 182,-33 111,30 74,156 52,228 41,333 41,471 41,549 55,616 82,672 116,743 169,778 240,778 293,778 328,747 346,684 L 369,508 C 377,444 397,411 428,410 L 1163,1116 C 1174,1127 1196,1133 1229,1133 1271,1133 1292,1118 1292,1087 L 1292,965 C 1292,929 1282,901 1262,881 L 442,47 C 390,-6 338,-33 285,-33 Z"/>
  </g>
  <g id="bullet-char-template-9679" transform="scale(0.00048828125,-0.00048828125)">
   <path d="M 813,0 C 632,0 489,54 383,161 276,268 223,411 223,592 223,773 276,916 383,1023 489,1130 632,1184 813,1184 992,1184 1136,1130 1245,1023 1353,916 1407,772 1407,592 1407,412 1353,268 1245,161 1136,54 992,0 813,0 Z"/>
  </g>
  <g id="bullet-char-template-8226" transform="scale(0.00048828125,-0.00048828125)">
   <path d="M 346,457 C 273,457 209,483 155,535 101,586 74,649 74,723 74,796 101,859 155,911 209,963 273,989 346,989 419,989 480,963 531,910 582,859 608,796 608,723 608,648 583,586 532,535 482,483 420,457 346,457 Z"/>
  </g>
  <g id="bullet-char-template-8211" transform="scale(0.00048828125,-0.00048828125)">
   <path d="M -4,459 L 1135,459 1135,606 -4,606 -4,459 Z"/>
  </g>
  <g id="bullet-char-template-61548" transform="scale(0.00048828125,-0.00048828125)">
   <path d="M 173,740 C 173,903 231,1043 346,1159 462,1274 601,1332 765,1332 928,1332 1067,1274 1183,1159 1299,1043 1357,903 1357,740 1357,577 1299,437 1183,322 1067,206 928,148 765,148 601,148 462,206 346,322 231,437 173,577 173,740 Z"/>
  </g>
 </defs>
 <g class="Page">
  <g class="Group">
   <g class="com.sun.star.drawing.ClosedBezierShape">
    <g id="id3">
     <rect class="BoundingBox" stroke="none" fill="none" x="7162" y="-706" width="1006" height="1413"/>
     <path fill="rgb(0,0,0)" stroke="none" d="M 7162,706 L 7162,-683 7437,-683 7437,-490 C 7508,-634 7619,-706 7771,-706 7894,-706 7991,-661 8061,-571 8131,-481 8167,-357 8167,-200 8167,-29 8127,108 8048,209 7968,311 7862,362 7728,362 7621,362 7524,320 7437,235 L 7437,706 7162,706 Z M 7437,72 C 7504,146 7576,183 7651,183 7719,183 7773,151 7813,85 7853,20 7874,-68 7874,-177 7874,-386 7806,-490 7672,-490 7591,-490 7512,-438 7437,-333 L 7437,72 Z"/>
    </g>
   </g>
   <g class="com.sun.star.drawing.ClosedBezierShape">
    <g id="id4">
     <rect class="BoundingBox" stroke="none" fill="none" x="9105" y="-706" width="1057" height="1069"/>
     <path fill="rgb(0,0,0)" stroke="none" d="M 9626,362 C 9467,362 9340,314 9246,217 9152,121 9105,-9 9105,-172 9105,-337 9152,-467 9247,-563 9341,-658 9470,-706 9632,-706 9796,-706 9924,-658 10019,-563 10113,-467 10161,-338 10161,-174 10161,-7 10113,125 10018,220 9924,314 9793,362 9626,362 Z M 9631,190 C 9789,190 9868,69 9868,-174 9868,-285 9847,-373 9805,-437 9763,-502 9706,-534 9632,-534 9560,-534 9503,-502 9461,-437 9419,-373 9398,-284 9398,-172 9398,-61 9419,27 9460,92 9502,157 9559,190 9631,190 Z"/>
    </g>
   </g>
   <g class="com.sun.star.drawing.ClosedBezierShape">
    <g id="id5">
     <rect class="BoundingBox" stroke="none" fill="none" x="11185" y="-706" width="653" height="1046"/>
     <path fill="rgb(0,0,0)" stroke="none" d="M 11185,339 L 11185,-683 11460,-683 11460,-490 C 11532,-634 11640,-706 11786,-706 11803,-706 11820,-704 11837,-700 L 11837,-455 C 11798,-469 11762,-476 11728,-476 11618,-476 11529,-421 11460,-310 L 11460,339 11185,339 Z"/>
    </g>
   </g>
   <g class="com.sun.star.drawing.ClosedBezierShape">
    <g id="id6">
     <rect class="BoundingBox" stroke="none" fill="none" x="12724" y="-886" width="630" height="1249"/>
     <path fill="rgb(0,0,0)" stroke="none" d="M 13352,333 C 13286,353 13234,362 13197,362 12958,362 12838,251 12838,27 L 12838,-510 12724,-510 12724,-682 12838,-682 12838,-854 13114,-886 13114,-682 13332,-682 13332,-510 13114,-510 13114,-9 C 13114,116 13165,179 13267,179 13291,179 13319,175 13352,166 L 13352,333 Z"/>
    </g>
   </g>
   <g class="com.sun.star.drawing.ClosedBezierShape">
    <g id="id7">
     <rect class="BoundingBox" stroke="none" fill="none" x="14257" y="-1153" width="769" height="1493"/>
     <path fill="rgb(0,0,0)" stroke="none" d="M 14397,339 L 14397,-510 14257,-510 14257,-682 14397,-682 14397,-756 C 14397,-1021 14523,-1153 14774,-1153 14855,-1153 14939,-1141 15025,-1118 L 15025,-932 C 14947,-964 14877,-981 14815,-981 14720,-981 14673,-909 14673,-766 L 14673,-682 14931,-682 14931,-510 14673,-510 14673,339 14397,339 Z"/>
    </g>
   </g>
   <g class="com.sun.star.drawing.ClosedBezierShape">
    <g id="id8">
     <rect class="BoundingBox" stroke="none" fill="none" x="15841" y="-706" width="1057" height="1069"/>
     <path fill="rgb(0,0,0)" stroke="none" d="M 16362,362 C 16203,362 16076,314 15982,217 15888,121 15841,-9 15841,-172 15841,-337 15888,-467 15983,-563 16077,-658 16206,-706 16368,-706 16532,-706 16660,-658 16755,-563 16849,-467 16897,-338 16897,-174 16897,-7 16849,125 16754,220 16660,314 16529,362 16362,362 Z M 16367,190 C 16525,190 16604,69 16604,-174 16604,-285 16583,-373 16541,-437 16499,-502 16442,-534 16368,-534 16296,-534 16239,-502 16197,-437 16155,-373 16134,-284 16134,-172 16134,-61 16155,27 16196,92 16238,157 16295,190 16367,190 Z"/>
    </g>
   </g>
   <g class="com.sun.star.drawing.ClosedBezierShape">
    <g id="id9">
     <rect class="BoundingBox" stroke="none" fill="none" x="17921" y="-1130" width="276" height="1470"/>
     <path fill="rgb(0,0,0)" stroke="none" d="M 17921,339 C 17921,-151 17921,-640 17921,-1130 18013,-1130 18105,-1130 18196,-1130 18196,-640 18196,-151 18196,339 L 17921,339 Z"/>
    </g>
   </g>
   <g class="com.sun.star.drawing.ClosedBezierShape">
    <g id="id10">
     <rect class="BoundingBox" stroke="none" fill="none" x="19312" y="-1084" width="276" height="1424"/>
     <path fill="rgb(0,0,0)" stroke="none" d="M 19312,339 C 19312,-1 19312,-342 19312,-682 19404,-682 19496,-682 19587,-682 19587,-342 19587,-1 19587,339 L 19312,339 Z M 19312,-854 C 19312,-931 19312,-1007 19312,-1084 19404,-1084 19496,-1084 19587,-1084 19587,-1007 19587,-931 19587,-854 L 19312,-854 Z"/>
    </g>
   </g>
   <g class="com.sun.star.drawing.ClosedBezierShape">
    <g id="id11">
     <rect class="BoundingBox" stroke="none" fill="none" x="20612" y="-706" width="1057" height="1069"/>
     <path fill="rgb(0,0,0)" stroke="none" d="M 21133,362 C 20974,362 20847,314 20753,217 20659,121 20612,-9 20612,-172 20612,-337 20659,-467 20754,-563 20848,-658 20977,-706 21139,-706 21303,-706 21431,-658 21526,-563 21620,-467 21668,-338 21668,-174 21668,-7 21620,125 21525,220 21431,314 21300,362 21133,362 Z M 21138,190 C 21296,190 21375,69 21375,-174 21375,-285 21354,-373 21312,-437 21270,-502 21213,-534 21139,-534 21067,-534 21010,-502 20968,-437 20926,-373 20905,-284 20905,-172 20905,-61 20926,27 20967,92 21009,157 21066,190 21138,190 Z"/>
    </g>
   </g>
  </g>
 </g>
</svg>